<?xml version="1.0" encoding="utf-8"?>
<svg version="1.1" id="Layer_1" focusable="false" xmlns="http://www.w3.org/2000/svg" xmlns:xlink="http://www.w3.org/1999/xlink"
	 x="0px" y="0px" viewBox="0 0 40.6 47.9" style="enable-background:new 0 0 40.6 47.9;" xml:space="preserve">
<style type="text/css">
	.st0{fill:#46AF4B;}
	.st1{fill:#CD2355;}
</style>
<g>
	<path d="M37.9,27.4c-0.1-1.9-1-3.6-2.4-4.8c-0.2-0.8-0.6-1.5-1.1-2.2c-0.2-1.7-1-3.3-2.4-4.5c0.2-0.2,0.4-0.4,0.5-0.7
		c1.4-0.6,2.4-1.8,2.8-3.3c0.8-0.7,1.3-1.7,1.4-2.8c0-0.4-0.1-0.9-0.2-1.3c0.7-0.6,0.9-1.6,0.6-2.5c-0.5-1.4-2.1-2.2-4.3-2.3
		c-0.7-0.6-1.5-0.9-2.4-0.8c-0.4,0-0.9,0.1-1.3,0.2c-0.4-0.2-0.8-0.3-1.3-0.3c-0.9,0-1.7,0.2-2.4,0.7c-0.1,0-0.2,0-0.3,0
		c-1,0.1-2,0.5-2.7,1.2c-0.5,0.4-1,0.9-1.4,1.5C20.5,5,20,4.5,19.5,4.1c-0.8-0.7-1.7-1.1-2.7-1.2c-0.1,0-0.2,0-0.3,0
		c-0.7-0.4-1.6-0.7-2.4-0.7c-0.4,0-0.9,0.1-1.3,0.3c-0.4-0.1-0.9-0.2-1.3-0.2c-0.9,0-1.7,0.3-2.4,0.8c-2.2,0.1-3.8,1-4.3,2.3
		C4.5,6.4,4.7,7.3,5.4,8C5.2,8.4,5.1,8.8,5.1,9.2c0.1,1.1,0.6,2.1,1.4,2.8c0.4,1.5,1.4,2.7,2.8,3.3c0.1,0.3,0.3,0.5,0.5,0.7
		c-1.3,1.1-2.2,2.7-2.4,4.5c-0.5,0.6-0.9,1.4-1.1,2.2c-1.4,1.2-2.3,2.9-2.4,4.8c-0.2,1.8,0.3,3.7,1.5,5.1c0.2,1,0.6,2,1.2,2.8
		c0.1,1.6,0.8,3.1,1.8,4.3c1.1,1.2,2.5,2.1,4.1,2.4c0.9,0.9,2,1.6,3.2,2c2.9,2.7,7.3,2.7,10.2,0c1.2-0.5,2.3-1.1,3.2-2
		c1.6-0.3,3-1.2,4.1-2.4c1.1-1.2,1.7-2.7,1.8-4.3c0.6-0.8,1-1.8,1.2-2.8C37.6,31,38.1,29.2,37.9,27.4L37.9,27.4z"/>
	<path class="st0" d="M25,5.2c0.1,0,0.2,0,0.2,0.1c0,0,0,0,0,0.1c-0.1,0.5,0.3,0.5,0.3,0.4c0.5-0.8,1.5-1.3,2.5-1.2
		c0.1,0,0.2,0.1,0.2,0.2c0,0,0,0.1,0,0.1c-0.3,0.5,0,0.5,0.1,0.5c1.3-0.8,2.5-0.8,2.9-0.5c0.1,0.1,0.1,0.2,0,0.2c0,0,0,0,0,0
		c-0.5,0.4-0.2,0.6,0,0.5c1.2-0.4,2.6-0.2,3.7,0.5c0.1,0.1,0.1,0.2,0,0.2c0,0,0,0,0,0c-0.7,0.6-1.2,1.4-1.3,2.3
		c0,0.3,0.5,0.2,0.7,0.2c0.1,0,0.2,0,0.2,0.1c0,0,0,0,0,0c0,0.7-0.7,1.5-1.7,2.2c-0.1,0.1-0.1,0.3,0.2,0.3c0.1,0,0.2,0.1,0.2,0.2
		c0,0,0,0.1,0,0.1c-0.4,0.7-0.9,1.3-2.6,1.8c-0.1,0-0.2,0.1-0.1,0.2c0,0.1,0.1,0.1,0.1,0.1c0.1,0,0.1,0.1,0.1,0.2c0,0,0,0.1-0.1,0.1
		c-1.7,1.5-6,0.9-6.6-1.6c0,0,0-0.1,0-0.1c1.8-2.4,4.3-4.3,7.2-5.4c0.1,0,0.1-0.1,0.1-0.2c0-0.1-0.1-0.1-0.2-0.1
		C28,7.3,25.2,9,23.3,11.5c-0.1,0.1-0.1,0.1-0.2,0.1C20.3,10.1,22.6,5.9,25,5.2z M8.8,11.9c0-0.1,0-0.2,0.1-0.2c0,0,0.1,0,0.1,0
		c0.3,0,0.3-0.2,0.2-0.3c-1-0.7-1.7-1.5-1.7-2.2c0-0.1,0.1-0.2,0.2-0.2c0,0,0,0,0,0C7.8,8.9,8.3,9,8.3,8.7C8.2,7.8,7.7,6.9,7,6.4
		C6.9,6.3,6.9,6.2,7,6.1c0,0,0,0,0,0c1.1-0.7,2.4-0.8,3.7-0.5c0.2,0.1,0.4-0.1,0-0.5c-0.1-0.1-0.1-0.2,0-0.2c0,0,0,0,0,0
		c0.5-0.3,1.7-0.3,2.9,0.5c0.1,0.1,0.5,0,0.1-0.5c-0.1-0.1,0-0.2,0-0.2c0,0,0.1,0,0.1,0c1-0.1,1.9,0.4,2.5,1.2
		c0.1,0.1,0.4,0.2,0.3-0.4c0-0.1,0.1-0.2,0.2-0.2c0,0,0,0,0.1,0c2.5,0.7,4.7,5,2,6.4c-0.1,0-0.2,0-0.2-0.1c-1.9-2.5-4.7-4.2-7.8-4.7
		c-0.1,0-0.1,0-0.2,0.1c0,0.1,0,0.1,0.1,0.2c2.8,1.1,5.3,3,7.2,5.4c0,0,0,0.1,0,0.1c-0.5,2.5-4.9,3-6.6,1.6c-0.1-0.1-0.1-0.2,0-0.2
		c0,0,0.1-0.1,0.1-0.1c0.1,0,0.1-0.1,0.1-0.2c0-0.1-0.1-0.1-0.1-0.1C9.6,13.2,9.1,12.5,8.8,11.9L8.8,11.9z"/>
	<path class="st1" d="M31.8,19.4c0.7,1.9,0.2,2.8-1.5,1.8c-1.4-0.8-2.6-1.8-3.5-3c-1.3-1.5-0.4-2.2,1.6-1.8
		C29.9,16.9,31.2,17.9,31.8,19.4z M24.3,17.3c2.4,2-0.4,3.4-3.4,3.4c-3,0-5.8-1.4-3.4-3.4C19.5,15.7,22.3,15.7,24.3,17.3z M10,19.4
		c0.7-1.5,2-2.5,3.5-2.9c2-0.4,2.8,0.3,1.6,1.8c-1,1.2-2.2,2.2-3.5,3C9.9,22.2,9.3,21.3,10,19.4z M6.5,29.9
		c-0.6-1.5-0.4-3.2,0.4-4.6c0.9-1.5,1.8-1.5,2.1-0.2c0.5,1.8,0.3,3.6-0.5,5.3C8,31.7,7.1,31.3,6.5,29.9z M13,39.7
		c-2.2-0.6-3.9-2.5-4-4.8C9.3,27.1,20.5,41,13,39.7z M13.2,30c-1.9-1.1-2.4-3.7-1.1-5.9c1.3-2.2,3.8-3.1,5.7-2
		c1.9,1.1,2.4,3.7,1.1,5.9C17.6,30.2,15.1,31.1,13.2,30z M24.1,42.7c-1.9,1.3-4.4,1.3-6.3,0c-1.9-1.3,0-2.8,3.1-2.8
		S25.9,41.4,24.1,42.7L24.1,42.7z"/>
	<ellipse class="st1" cx="20.9" cy="34.2" rx="4.4" ry="3.7"/>
	<path class="st1" d="M23,28c-1.3-2.2-0.8-4.8,1.1-5.9c1.9-1.1,4.4-0.2,5.7,2c1.3,2.2,0.8,4.8-1.1,5.9C26.8,31.1,24.2,30.2,23,28z
		 M28.9,39.7c-7.5,1.3,3.7-12.6,4-4.8C32.8,37.2,31.1,39.1,28.9,39.7L28.9,39.7z M35.3,29.9c-0.6,1.4-1.4,1.9-2.1,0.5
		c-0.8-1.7-0.9-3.5-0.5-5.3c0.4-1.3,1.3-1.3,2.1,0.2C35.7,26.7,35.9,28.4,35.3,29.9L35.3,29.9z"/>
</g>
</svg>
